<svg width="1440" height="901" viewBox="0 0 1440 901" fill="none" xmlns="http://www.w3.org/2000/svg">
<g clip-path="url(#clip0_3703_1001)">
<g opacity="0.3" filter="url(#filter0_f_3703_1001)">
<ellipse cx="-179.528" cy="188.597" rx="239.472" ry="248.432" fill="#D5AEE4"/>
</g>
<path d="M759.307 222C718.907 153.2 742.474 13.3333 759.307 -48L1510.5 -156.5L1508.5 723.5H1464.81C1386.14 724.5 1210.71 717 1138.31 679C1047.81 631.5 1088.81 555 1013.81 515C938.807 475 981.807 369.5 955.807 329.5C929.807 289.5 809.807 308 759.307 222Z" fill="#FFF1DA"/>
<path d="M1278.17 294.847C1276.82 295.151 1275.49 295.715 1274.29 296.502C1271.15 298.504 1269.32 301.36 1270.21 302.883C1271.09 304.405 1274.36 304.015 1277.5 302.014C1278.72 301.255 1279.81 300.284 1280.69 299.162C1281.1 298.62 1281.17 297.944 1280.88 297.439L1279.72 295.462C1279.43 294.955 1278.82 294.714 1278.17 294.847Z" fill="#D5D6DB"/>
<path d="M1270.29 267.854C1269.3 268.075 1268.34 268.484 1267.47 269.055C1265.19 270.506 1263.87 272.577 1264.51 273.68C1265.15 274.782 1267.52 274.5 1269.8 273.049C1270.68 272.498 1271.47 271.794 1272.11 270.98C1272.41 270.587 1272.46 270.098 1272.24 269.732L1271.41 268.3C1271.2 267.933 1270.76 267.758 1270.29 267.854Z" fill="#D5D6DB"/>
<path d="M1257.47 268.985C1257.25 268.96 1257.02 269.018 1256.82 269.148L1251.47 272.556C1251.02 272.84 1250.84 273.388 1251.07 273.779C1251.12 273.869 1251.19 273.945 1251.28 274.004L1264.46 283.089L1282.29 271.724L1257.47 268.985Z" fill="#029BC5"/>
<path d="M1313.85 267.7L1265.32 298.252L1236.61 309.677L1221.96 312.588L1220.35 309.851L1301.25 259.904C1303.66 258.409 1306.34 257.492 1309.03 257.245C1310.21 257.143 1311.37 257.182 1312.49 257.361C1313.49 257.512 1314.43 257.802 1315.29 258.224C1316.26 258.703 1318.09 258.758 1318.69 259.711C1318.69 259.709 1320.09 264.083 1313.85 267.7Z" fill="#E1E6E9"/>
<path d="M1265.96 294.209L1244.97 327.679C1244.7 328.15 1244.86 328.676 1245.31 328.855C1245.59 328.965 1245.93 328.922 1246.22 328.74L1251.56 325.35C1252.59 324.697 1253.5 323.869 1254.24 322.915L1294.95 275.046L1265.96 294.209Z" fill="#029BC5"/>
<path d="M1212.98 293.092C1212.63 292.972 1212.21 293.034 1211.86 293.258L1207.45 296.072C1206.84 296.455 1206.6 297.191 1206.91 297.717C1206.97 297.817 1207.04 297.905 1207.13 297.977L1219.51 307.89L1232.52 299.762L1212.98 293.092Z" fill="#029BC5"/>
<path d="M1223.66 309.677L1217 319.006C1216.9 319.14 1216.92 319.308 1217.05 319.382C1217.14 319.435 1217.26 319.425 1217.36 319.358L1221.49 316.742C1221.53 316.721 1221.55 316.696 1221.58 316.667L1231.31 304.832L1223.66 309.677Z" fill="#029BC5"/>
<path d="M1311.7 257.763C1310.54 257.578 1309.34 257.538 1308.13 257.645C1306.95 259.296 1306.2 261.151 1305.94 263.024C1305.92 263.4 1306.23 263.671 1306.62 263.629C1306.74 263.616 1306.86 263.573 1306.97 263.504L1314.58 258.66C1313.69 258.221 1312.72 257.919 1311.7 257.763Z" fill="#029BC5"/>
<path d="M1295.12 266.671L1300.08 263.534L1304.71 271.403L1299.74 274.54L1295.12 266.671Z" fill="#D5D6DB"/>
<path d="M1291.99 269.783C1291.39 270.163 1291.15 270.891 1291.46 271.411L1291.95 272.253C1292.27 272.76 1293.01 272.849 1293.6 272.452C1294.16 272.074 1294.39 271.387 1294.12 270.88L1293.62 270.038C1293.32 269.519 1292.59 269.405 1291.99 269.783Z" fill="#3A556A"/>
<path d="M1287.53 272.556C1286.93 272.935 1286.69 273.664 1286.99 274.184L1287.49 275.026C1287.81 275.532 1288.55 275.621 1289.14 275.224C1289.7 274.847 1289.92 274.16 1289.65 273.653L1289.16 272.811C1288.86 272.292 1288.13 272.178 1287.53 272.556Z" fill="#3A556A"/>
<path d="M1283.06 275.329C1282.46 275.709 1282.23 276.437 1282.53 276.956L1283.02 277.798C1283.35 278.304 1284.08 278.394 1284.67 277.997C1285.23 277.619 1285.46 276.932 1285.19 276.425L1284.7 275.583C1284.39 275.064 1283.66 274.95 1283.06 275.329Z" fill="#3A556A"/>
<path d="M1278.6 278.102C1278 278.481 1277.76 279.209 1278.06 279.728L1278.56 280.57C1278.88 281.077 1279.62 281.166 1280.21 280.769C1280.77 280.391 1280.99 279.705 1280.72 279.198L1280.23 278.356C1279.93 277.836 1279.2 277.722 1278.6 278.102Z" fill="#3A556A"/>
<path d="M1274.13 280.874C1273.54 281.254 1273.3 281.982 1273.6 282.502L1274.09 283.344C1274.4 283.863 1275.13 283.977 1275.73 283.598C1276.32 283.219 1276.56 282.491 1276.26 281.972L1275.77 281.129C1275.46 280.61 1274.73 280.495 1274.13 280.874C1274.13 280.874 1274.13 280.874 1274.13 280.874Z" fill="#3A556A"/>
<path d="M1269.67 283.647C1269.07 284.027 1268.83 284.755 1269.14 285.274L1269.63 286.117C1269.93 286.636 1270.66 286.75 1271.26 286.371C1271.86 285.992 1272.1 285.263 1271.8 284.744L1271.3 283.902C1271 283.382 1270.27 283.268 1269.67 283.646C1269.67 283.646 1269.67 283.647 1269.67 283.647Z" fill="#3A556A"/>
<path d="M1265.2 286.419C1264.61 286.799 1264.37 287.527 1264.67 288.047L1265.16 288.889C1265.47 289.408 1266.2 289.52 1266.8 289.141C1267.39 288.762 1267.63 288.035 1267.33 287.517L1266.84 286.675C1266.53 286.155 1265.8 286.041 1265.2 286.419Z" fill="#3A556A"/>
<path d="M1260.74 289.192C1260.14 289.572 1259.9 290.3 1260.21 290.819L1260.7 291.662C1261 292.18 1261.74 292.293 1262.33 291.914C1262.93 291.535 1263.17 290.808 1262.87 290.289L1262.37 289.447C1262.07 288.927 1261.34 288.813 1260.74 289.192Z" fill="#3A556A"/>
<path d="M1256.28 291.964C1255.68 292.344 1255.44 293.072 1255.74 293.592L1256.24 294.434C1256.54 294.953 1257.27 295.065 1257.87 294.686C1258.47 294.307 1258.7 293.58 1258.4 293.062L1257.91 292.219C1257.61 291.7 1256.87 291.586 1256.28 291.964Z" fill="#3A556A"/>
<path d="M1251.81 294.737C1251.21 295.116 1250.97 295.845 1251.28 296.364L1251.28 296.365L1251.77 297.207C1252.07 297.726 1252.81 297.839 1253.4 297.459C1254 297.08 1254.24 296.354 1253.94 295.835L1253.44 294.993C1253.14 294.473 1252.41 294.359 1251.81 294.737Z" fill="#3A556A"/>
<path d="M1247.35 297.509C1246.75 297.888 1246.51 298.616 1246.81 299.136L1246.81 299.137L1247.31 299.979C1247.61 300.498 1248.34 300.61 1248.94 300.231C1249.54 299.852 1249.78 299.125 1249.47 298.607L1248.98 297.764C1248.68 297.245 1247.95 297.131 1247.35 297.509Z" fill="#3A556A"/>
<path d="M794.174 247.847C792.816 248.151 791.493 248.715 790.287 249.502C787.147 251.504 785.319 254.36 786.206 255.883C787.093 257.405 790.358 257.015 793.499 255.014C794.721 254.255 795.806 253.284 796.688 252.162C797.098 251.62 797.171 250.944 796.876 250.439L795.724 248.462C795.431 247.955 794.823 247.714 794.174 247.847Z" fill="#D5D6DB"/>
<path d="M786.287 220.854C785.302 221.075 784.343 221.484 783.469 222.055C781.192 223.506 779.866 225.577 780.509 226.68C781.151 227.783 783.52 227.5 785.796 226.049C786.682 225.498 787.469 224.794 788.109 223.98C788.405 223.587 788.459 223.098 788.245 222.732L787.41 221.3C787.198 220.933 786.757 220.758 786.287 220.854Z" fill="#D5D6DB"/>
<path d="M773.473 221.985C773.254 221.96 773.02 222.019 772.817 222.148L767.469 225.556C767.022 225.84 766.843 226.388 767.07 226.779C767.122 226.869 767.193 226.945 767.279 227.004L780.461 236.089L798.294 224.724L773.473 221.985Z" fill="#029BC5"/>
<path d="M829.85 220.7L781.318 251.252L752.605 262.677L737.962 265.588L736.351 262.851L817.246 212.904C819.657 211.409 822.343 210.492 825.032 210.245C826.209 210.143 827.372 210.182 828.493 210.361C829.487 210.512 830.43 210.802 831.294 211.224C832.258 211.703 834.092 211.758 834.687 212.711C834.689 212.709 836.091 217.084 829.85 220.7Z" fill="#E1E6E9"/>
<path d="M781.961 247.209L760.966 280.679C760.704 281.15 760.86 281.676 761.314 281.855C761.592 281.965 761.933 281.922 762.219 281.74L767.563 278.35C768.591 277.697 769.501 276.869 770.238 275.915L810.954 228.046L781.961 247.209Z" fill="#029BC5"/>
<path d="M728.982 246.092C728.632 245.972 728.215 246.034 727.863 246.258L723.446 249.072C722.844 249.455 722.604 250.191 722.91 250.717C722.968 250.817 723.044 250.905 723.134 250.977L735.511 260.89L748.524 252.762L728.982 246.092Z" fill="#029BC5"/>
<path d="M739.66 262.677L732.998 272.006C732.9 272.14 732.923 272.308 733.049 272.382C733.14 272.435 733.264 272.425 733.365 272.358L737.493 269.742C737.525 269.721 737.554 269.696 737.578 269.667L747.312 257.832L739.66 262.677Z" fill="#029BC5"/>
<path d="M827.697 210.763C826.542 210.578 825.345 210.538 824.132 210.645C822.951 212.296 822.196 214.151 821.943 216.024C821.924 216.4 822.228 216.671 822.62 216.629C822.743 216.616 822.864 216.573 822.973 216.504L830.581 211.66C829.692 211.221 828.72 210.919 827.697 210.763Z" fill="#029BC5"/>
<path d="M811.117 219.671L816.084 216.534L820.711 224.403L815.744 227.54L811.117 219.671Z" fill="#D5D6DB"/>
<path d="M807.992 222.783C807.393 223.163 807.154 223.891 807.458 224.411L807.95 225.253C808.274 225.76 809.013 225.849 809.602 225.452C810.162 225.074 810.387 224.387 810.117 223.88L809.625 223.038C809.321 222.519 808.59 222.405 807.992 222.783Z" fill="#3A556A"/>
<path d="M803.528 225.556C802.929 225.935 802.69 226.664 802.994 227.184L803.486 228.026C803.81 228.532 804.549 228.621 805.137 228.224C805.697 227.847 805.923 227.16 805.653 226.653L805.161 225.811C804.857 225.292 804.126 225.178 803.528 225.556Z" fill="#3A556A"/>
<path d="M799.062 228.329C798.464 228.709 798.225 229.437 798.529 229.956L799.021 230.798C799.345 231.304 800.084 231.394 800.673 230.997C801.233 230.619 801.458 229.932 801.188 229.425L800.696 228.583C800.392 228.064 799.66 227.95 799.062 228.329Z" fill="#3A556A"/>
<path d="M794.597 231.102C793.999 231.481 793.761 232.209 794.065 232.728L794.557 233.57C794.881 234.077 795.62 234.166 796.208 233.769C796.768 233.391 796.994 232.705 796.724 232.198L796.232 231.356C795.927 230.836 795.196 230.722 794.597 231.102Z" fill="#3A556A"/>
<path d="M790.133 233.874C789.535 234.254 789.297 234.982 789.6 235.502L790.093 236.344C790.397 236.863 791.128 236.977 791.726 236.598C792.325 236.219 792.564 235.491 792.26 234.972L791.767 234.129C791.464 233.61 790.733 233.495 790.135 233.874C790.134 233.874 790.134 233.874 790.133 233.874Z" fill="#3A556A"/>
<path d="M785.669 236.647C785.071 237.027 784.832 237.755 785.136 238.274L785.629 239.117C785.932 239.636 786.664 239.75 787.262 239.371C787.86 238.992 788.099 238.263 787.796 237.744L787.303 236.902C787 236.382 786.269 236.268 785.67 236.646C785.67 236.646 785.669 236.647 785.669 236.647Z" fill="#3A556A"/>
<path d="M781.204 239.419C780.606 239.799 780.368 240.527 780.671 241.047L781.164 241.889C781.468 242.408 782.2 242.52 782.798 242.141C783.395 241.762 783.633 241.035 783.331 240.517L782.838 239.675C782.535 239.155 781.803 239.041 781.204 239.419Z" fill="#3A556A"/>
<path d="M776.74 242.192C776.142 242.572 775.903 243.3 776.207 243.819L776.699 244.662C777.004 245.18 777.735 245.293 778.333 244.914C778.93 244.535 779.168 243.808 778.866 243.289L778.373 242.447C778.07 241.927 777.339 241.813 776.74 242.192Z" fill="#3A556A"/>
<path d="M772.276 244.964C771.677 245.344 771.439 246.072 771.743 246.592L772.235 247.434C772.54 247.953 773.271 248.065 773.869 247.686C774.466 247.307 774.704 246.58 774.402 246.062L773.909 245.219C773.605 244.7 772.874 244.586 772.276 244.964Z" fill="#3A556A"/>
<path d="M767.81 247.737C767.211 248.116 766.972 248.845 767.276 249.364L767.277 249.365L767.769 250.207C768.074 250.726 768.805 250.839 769.403 250.459C770 250.08 770.238 249.354 769.936 248.835L769.443 247.993C769.14 247.473 768.409 247.359 767.81 247.737Z" fill="#3A556A"/>
<path d="M763.347 250.509C762.748 250.888 762.509 251.616 762.813 252.136L762.814 252.137L763.306 252.979C763.611 253.498 764.342 253.61 764.94 253.231C765.537 252.852 765.775 252.125 765.473 251.607L764.98 250.764C764.676 250.245 763.945 250.131 763.347 250.509Z" fill="#3A556A"/>
</g>
<defs>
<filter id="filter0_f_3703_1001" x="-569" y="-209.836" width="778.945" height="796.864" filterUnits="userSpaceOnUse" color-interpolation-filters="sRGB">
<feFlood flood-opacity="0" result="BackgroundImageFix"/>
<feBlend mode="normal" in="SourceGraphic" in2="BackgroundImageFix" result="shape"/>
<feGaussianBlur stdDeviation="75" result="effect1_foregroundBlur_3703_1001"/>
</filter>
<clipPath id="clip0_3703_1001">
<rect width="1566" height="901" fill="white" transform="translate(-63)"/>
</clipPath>
</defs>
</svg>
