<svg width="115" height="34" viewBox="0 0 115 34" fill="none" xmlns="http://www.w3.org/2000/svg">
<path d="M74.1368 28.309L83.644 31.3095L91.6502 23.3081L101.658 30.3094L112.166 28.309L107.662 13.8065L91.6502 18.8073L82.6433 13.8065L73.136 15.3067L74.1368 28.309Z" fill="#F1A501"/>
<path d="M0 23.3721V21.2097L6.12269 20.1055V23.0961C6.15338 24.7217 6.5677 25.9486 7.36564 26.7767C8.19427 27.5742 9.28378 27.9729 10.6341 27.9729C11.9538 27.9729 12.9973 27.5435 13.7645 26.6847C14.5625 25.8259 14.9615 24.6757 14.9615 23.2341V0.690121H21.3143V23.2341C21.3143 26.24 20.3169 28.7857 18.322 30.8714C16.3272 32.9571 13.7799 34 10.6802 34C7.45771 34 4.86439 33.0338 2.90022 31.1015C0.96674 29.1385 0 26.562 0 23.3721Z" fill="black"/>
<path d="M22.7741 27.1448C22.7741 25.2124 23.4033 23.6635 24.6616 22.498C25.9199 21.3324 27.5465 20.5963 29.5413 20.2896L35.1116 19.4614C36.2471 19.3081 36.8149 18.7713 36.8149 17.8511C36.8149 16.9923 36.4773 16.2869 35.8021 15.7348C35.1576 15.1827 34.2216 14.9066 32.994 14.9066C31.705 14.9066 30.6769 15.2594 29.9096 15.9648C29.173 16.6703 28.7587 17.5444 28.6667 18.5873L23.2345 17.4371C23.4493 15.4741 24.4161 13.7411 26.1347 12.2382C27.8534 10.7352 30.1244 9.98376 32.9479 9.98376C36.3238 9.98376 38.8098 10.7966 40.4056 12.4222C42.0015 14.0171 42.7995 16.0722 42.7995 18.5873V29.7212C42.7995 31.0708 42.8915 32.267 43.0757 33.3099H37.4594C37.3059 32.6351 37.2292 31.7303 37.2292 30.5954C35.7868 32.8345 33.5617 33.954 30.5541 33.954C28.2216 33.954 26.3342 33.2792 24.8918 31.9296C23.48 30.5801 22.7741 28.9851 22.7741 27.1448ZM31.8431 29.3992C33.2855 29.3992 34.4671 29.0005 35.3878 28.203C36.3392 27.3748 36.8149 26.0253 36.8149 24.1543V23.1421L31.705 23.9242C29.8329 24.2003 28.8968 25.1511 28.8968 26.7767C28.8968 27.5129 29.1577 28.1416 29.6794 28.6631C30.2012 29.1538 30.9224 29.3992 31.8431 29.3992Z" fill="black"/>
<path d="M66.7889 0V29.2152C66.7889 30.7181 66.8503 32.083 66.973 33.3099H61.1265C60.9731 32.5431 60.8964 31.6689 60.8964 30.6874C60.3746 31.6382 59.546 32.4051 58.4105 32.9878C57.3056 33.5706 56.0166 33.862 54.5435 33.862C51.321 33.862 48.6663 32.7424 46.5794 30.5034C44.5232 28.2336 43.495 25.3811 43.495 21.9459C43.495 18.6026 44.5078 15.7961 46.5334 13.5264C48.5896 11.2567 51.1983 10.1218 54.3594 10.1218C57.6125 10.1218 59.7455 11.0573 60.7583 12.9283V0H66.7889ZM49.6638 21.9459C49.6638 23.9396 50.1855 25.5192 51.229 26.6847C52.2724 27.8196 53.6228 28.387 55.2801 28.387C56.9066 28.387 58.2417 27.8042 59.2851 26.6387C60.3286 25.4732 60.8503 23.8935 60.8503 21.8999C60.8503 19.9369 60.3286 18.4032 59.2851 17.2991C58.2417 16.1642 56.9066 15.5968 55.2801 15.5968C53.6535 15.5968 52.3031 16.1642 51.229 17.2991C50.1855 18.4339 49.6638 19.9829 49.6638 21.9459Z" fill="black"/>
<path d="M75.8247 26.7307C76.9603 27.8656 78.326 28.433 79.9219 28.433C81.5178 28.433 82.8681 27.8656 83.973 26.7307C85.1085 25.5959 85.6763 24.0162 85.6763 21.9919C85.6763 19.9675 85.1085 18.3879 83.973 17.253C82.8681 16.1182 81.5178 15.5507 79.9219 15.5507C78.326 15.5507 76.9603 16.1182 75.8247 17.253C74.7199 18.3879 74.1675 19.9675 74.1675 21.9919C74.1675 24.0162 74.7199 25.5959 75.8247 26.7307ZM71.4053 13.3884C73.6764 11.1186 76.5153 9.98376 79.9219 9.98376C83.3285 9.98376 86.152 11.1186 88.3924 13.3884C90.6634 15.6581 91.799 18.5259 91.799 21.9919C91.799 25.4578 90.6634 28.3257 88.3924 30.5954C86.152 32.8651 83.3285 34 79.9219 34C76.5153 34 73.6764 32.8651 71.4053 30.5954C69.165 28.3257 68.0448 25.4578 68.0448 21.9919C68.0448 18.5259 69.165 15.6581 71.4053 13.3884Z" fill="black"/>
<path d="M99.0258 26.7307C100.161 27.8656 101.527 28.433 103.123 28.433C104.719 28.433 106.069 27.8656 107.174 26.7307C108.31 25.5959 108.877 24.0162 108.877 21.9919C108.877 19.9675 108.31 18.3879 107.174 17.253C106.069 16.1182 104.719 15.5507 103.123 15.5507C101.527 15.5507 100.161 16.1182 99.0258 17.253C97.9209 18.3879 97.3685 19.9675 97.3685 21.9919C97.3685 24.0162 97.9209 25.5959 99.0258 26.7307ZM94.6064 13.3884C96.8775 11.1186 99.7163 9.98376 103.123 9.98376C106.53 9.98376 109.353 11.1186 111.593 13.3884C113.864 15.6581 115 18.5259 115 21.9919C115 25.4578 113.864 28.3257 111.593 30.5954C109.353 32.8651 106.53 34 103.123 34C99.7163 34 96.8775 32.8651 94.6064 30.5954C92.366 28.3257 91.2458 25.4578 91.2458 21.9919C91.2458 18.5259 92.366 15.6581 94.6064 13.3884Z" fill="black"/>
</svg>
