<svg width="150" height="151" viewBox="0 0 150 151" fill="none" xmlns="http://www.w3.org/2000/svg">
<path d="M6.32897 4.55377H10.6694V6.42885H6.32897V11.3576H4.34047V6.42885H0V4.55377H4.34047V0H6.32897V4.55377Z" fill="#FF7152"/>
<path d="M6.32897 39.4644H10.6694V41.3394H6.32897V46.2682H4.34047V41.3394H0V39.4644H4.34047V34.9106H6.32897V39.4644Z" fill="#E5E5E5"/>
<path d="M6.32897 74.3749H10.6694V76.25H6.32897V81.1788H4.34047V76.25H0V74.3749H4.34047V69.8212H6.32897V74.3749Z" fill="#E5E5E5"/>
<path d="M41.1616 4.55377H45.5021V6.42885H41.1616V11.3576H39.1731V6.42885H34.8326V4.55377H39.1731V0H41.1616V4.55377Z" fill="#E5E5E5"/>
<path d="M41.1616 39.4644H45.5021V41.3394H41.1616V46.2682H39.1731V41.3394H34.8326V39.4644H39.1731V34.9106H41.1616V39.4644Z" fill="#E5E5E5"/>
<path d="M41.1616 74.3749H45.5021V76.25H41.1616V81.1788H39.1731V76.25H34.8326V74.3749H39.1731V69.8212H41.1616V74.3749Z" fill="#E5E5E5"/>
<path d="M41.1616 109.286H45.5021V111.161H41.1616V116.089H39.1731V111.161H34.8326V109.286H39.1731V104.732H41.1616V109.286Z" fill="#E5E5E5"/>
<path d="M75.9942 4.55377H80.3347V6.42885H75.9942V11.3576H74.0058V6.42885H69.6653V4.55377H74.0058V0H75.9942V4.55377Z" fill="#E5E5E5"/>
<path d="M75.9942 39.4644H80.3347V41.3394H75.9942V46.2682H74.0058V41.3394H69.6653V39.4644H74.0058V34.9106H75.9942V39.4644Z" fill="#E5E5E5"/>
<path d="M75.9942 74.3749H80.3347V76.25H75.9942V81.1788H74.0058V76.25H69.6653V74.3749H74.0058V69.8212H75.9942V74.3749Z" fill="#6246E5"/>
<path d="M75.9942 109.286H80.3347V111.161H75.9942V116.089H74.0058V111.161H69.6653V109.286H74.0058V104.732H75.9942V109.286Z" fill="#E5E5E5"/>
<path d="M75.9942 144.196H80.3347V146.071H75.9942V151H74.0058V146.071H69.6653V144.196H74.0058V139.642H75.9942V144.196Z" fill="#E5E5E5"/>
<path d="M110.827 4.55377H115.167V6.42885H110.827V11.3576H108.838V6.42885H104.498V4.55377H108.838V0H110.827V4.55377Z" fill="#E5E5E5"/>
<path d="M110.827 39.4644H115.167V41.3394H110.827V46.2682H108.838V41.3394H104.498V39.4644H108.838V34.9106H110.827V39.4644Z" fill="#E5E5E5"/>
<path d="M110.827 74.3749H115.167V76.25H110.827V81.1788H108.838V76.25H104.498V74.3749H108.838V69.8212H110.827V74.3749Z" fill="#E5E5E5"/>
<path d="M110.827 109.286H115.167V111.161H110.827V116.089H108.838V111.161H104.498V109.286H108.838V104.732H110.827V109.286Z" fill="#E5E5E5"/>
<path d="M110.827 144.196H115.167V146.071H110.827V151H108.838V146.071H104.498V144.196H108.838V139.642H110.827V144.196Z" fill="#E5E5E5"/>
<path d="M145.66 4.55377H150V6.42885H145.66V11.3576H143.671V6.42885H139.331V4.55377H143.671V0H145.66V4.55377Z" fill="#E5E5E5"/>
<path d="M145.66 39.4644H150V41.3394H145.66V46.2682H143.671V41.3394H139.331V39.4644H143.671V34.9106H145.66V39.4644Z" fill="#E5E5E5"/>
<path d="M145.66 74.3749H150V76.25H145.66V81.1788H143.671V76.25H139.331V74.3749H143.671V69.8212H145.66V74.3749Z" fill="#E5E5E5"/>
<path d="M145.66 109.286H150V111.161H145.66V116.089H143.671V111.161H139.331V109.286H143.671V104.732H145.66V109.286Z" fill="#E5E5E5"/>
<path d="M145.66 144.196H150V146.071H145.66V151H143.671V146.071H139.331V144.196H143.671V139.642H145.66V144.196Z" fill="#E5E5E5"/>
</svg>
